<mxfile host="app.diagrams.net" modified="2024-04-11T15:21:10.851Z" agent="Mozilla/5.0 (X11; Linux x86_64) AppleWebKit/537.36 (KHTML, like Gecko) Chrome/123.0.0.0 Safari/537.36" version="24.2.3" etag="KIIdhLHFSsmca1kAjtth" type="github">
  <diagram name="Page-1" id="9ej9is7mg33FbllYesQ-">
    <mxGraphModel>
      <root>
        <mxCell id="0" />
        <mxCell id="1" parent="0" />
      </root>
    </mxGraphModel>
  </diagram>
</mxfile>
